<svg xmlns="http://www.w3.org/2000/svg" xmlns:xlink="http://www.w3.org/1999/xlink" width="34" height="40"><defs><path id="a" d="M0 0h24.434v30H0z"/><path id="c" d="M.37.436H26.1v4.326H.37z"/></defs><g fill="none" fill-rule="evenodd"><g transform="translate(2 5)"><mask id="b" fill="#fff"><use xlink:href="#a"/></mask><path fill="#3EC19D" d="M23.098 0H1.353C.606 0 0 .602 0 1.344v26.174A2.49 2.49 0 002.498 30h21.936V1.328C24.434.594 23.836 0 23.098 0" mask="url(#b)"/></g><g transform="translate(4.9 30.238)"><mask id="d" fill="#fff"><use xlink:href="#c"/></mask><path fill="#3BB896" d="M24.358 4.762H.37c.961 0 1.742-.997 1.742-2.5V.906c0-.26.212-.47.473-.47h22.973c.3 0 .542.24.542.538v2.057c0 .955-.78 1.73-1.742 1.73" mask="url(#d)"/></g><path fill="#3BB896" d="M18.135 14.916c0 3.377-2.755 6.115-6.155 6.115-3.399 0-6.154-2.738-6.154-6.115 0-3.377 2.755-6.115 6.154-6.115 3.4 0 6.155 2.738 6.155 6.115"/><path fill="#FFF" d="M12.15 13.288a.682.682 0 01-.659.64c-.324.016-.647.013-.989.009a54.168 54.168 0 00-.28-.003v-1.39c.103 0 .205-.003.307-.005.36-.008.704-.015 1.047.015.363.031.588.319.574.734zm1.47 3.376l1.39-1.855h-.611c-.25-.002-.48-.003-.713.004-.111.003-.213.084-.271.157-.173.22-.343.441-.519.67l-.033.045-.59-.76c.801-.319 1.14-.79 1.189-1.624.054-.931-.534-1.7-1.43-1.87-.315-.06-.642-.064-.957-.066l-.196-.003a54.048 54.048 0 00-1.243-.004l-.695.001v5.766h1.27l.001-.832v-1.198c.109.003.219.003.33.003a5.84 5.84 0 01.342.003c.02.001.05.012.054.016.324.42.644.843.967 1.271l.208.275-1.383 1.812h.875c.172 0 .34 0 .51-.004.106-.003.202-.079.257-.149.162-.209.322-.42.49-.643l.01-.014.025.034c.156.207.307.406.46.602.047.061.145.165.27.169.252.007.504.004.77.005h.623l-1.4-1.81z"/><path stroke="#FFF" stroke-linecap="round" stroke-linejoin="round" stroke-width=".952" d="M10.011 24.307h7.155m-7.155 3.584h8.743M7.182 24.307a.435.435 0 01-.437.433.435.435 0 01-.436-.433c0-.24.196-.434.436-.434.242 0 .437.194.437.434zm0 3.584c0 .24-.195.434-.437.434a.435.435 0 01-.436-.434c0-.239.196-.433.436-.433.242 0 .437.194.437.433z"/></g></svg>