<svg width="192" height="184" viewBox="0 0 192 184" fill="none" xmlns="http://www.w3.org/2000/svg">
<path d="M185.686 64.5251L128.162 56.1649L102.447 4.0329C101.744 2.60555 100.589 1.45008 99.1615 0.74774C95.5818 -1.01945 91.2318 0.453209 89.442 4.0329L63.7271 56.1649L6.20293 64.5251C4.61699 64.7517 3.16699 65.4993 2.05683 66.6321C0.714716 68.0116 -0.0248518 69.8674 0.000637681 71.7919C0.0261272 73.7164 0.814588 75.552 2.19277 76.8954L43.8123 117.473L33.9795 174.77C33.7489 176.103 33.8964 177.474 34.4052 178.727C34.9141 179.981 35.7639 181.066 36.8584 181.861C37.9528 182.656 39.2481 183.128 40.5974 183.225C41.9466 183.321 43.2958 183.037 44.492 182.406L95.9443 155.354L147.397 182.406C148.801 183.153 150.433 183.402 151.996 183.131C155.938 182.451 158.589 178.713 157.909 174.77L148.076 117.473L189.696 76.8954C190.829 75.7852 191.576 74.3352 191.803 72.7493C192.415 68.7845 189.651 65.1142 185.686 64.5251V64.5251Z" fill="#FFFF99"/>
</svg>
