<?xml version="1.0" encoding="utf-8"?>
<!-- Generator: Adobe Illustrator 16.0.0, SVG Export Plug-In . SVG Version: 6.00 Build 0)  -->
<!DOCTYPE svg PUBLIC "-//W3C//DTD SVG 1.0//EN" "http://www.w3.org/TR/2001/REC-SVG-20010904/DTD/svg10.dtd">
<svg version="1.0" id="Layer_1" xmlns="http://www.w3.org/2000/svg" xmlns:xlink="http://www.w3.org/1999/xlink" x="0px" y="0px"
	 width="100px" height="100px" viewBox="0 0 100 100" enable-background="new 0 0 100 100" xml:space="preserve">
<path fill="#2E3192" d="M10,33.334c0,7.818,1.771,15.275,4.938,22.08c3.291,7.066,8.08,13.42,14.049,18.74
	C34.955,79.469,42.091,83.736,50,86.666c7.91-2.93,15.046-7.197,21.016-12.512c5.971-5.32,10.756-11.674,14.051-18.74
	C88.229,48.609,90,41.152,90,33.334c0-11.047-8.952-20-20-20c-7.734,0-14.746,3.008-20,7.888c-5.254-4.88-12.27-7.888-20-7.888
	C18.954,13.334,10,22.287,10,33.334z"/>
<path fill="#E1F5FE" d="M16.666,33.334c0,2.244,0.229,4.463,0.561,6.666l1.518,6.668c0.621,2.004,1.333,3.992,2.236,5.93
	c2.899,6.23,7.086,11.807,12.438,16.578c4.817,4.287,10.386,7.758,16.581,10.33c6.193-2.572,11.766-6.043,16.582-10.33
	c4.152-3.701,7.584-7.902,10.281-12.51L80.068,50c2.121-5.372,3.265-10.957,3.265-16.666C83.333,25.98,77.354,20,70,20
	c-5.732,0-11.225,2.168-15.467,6.107L50,30.316l-4.538-4.209C41.223,22.168,35.73,20,30,20C22.648,20,16.666,25.98,16.666,33.334z"
	/>
<path fill="#29B6F6" d="M76.863,56.666H63.73l-1.875-8.437L57.02,70H46.322l-6.32-28.435l-3.355,15.103h-8.399
	c-0.985-4.424-2.224-10-2.224-10h-0.119h-7.16L17.227,40H31.25l1.134,5.107l2.617-11.773H45l6.67,30L56.855,40h10l2.224,10h10.989
	L76.863,56.666z"/>
</svg>
