<svg width="124" height="141" viewBox="0 0 124 141" fill="none" xmlns="http://www.w3.org/2000/svg">
<path d="M123.637 75.4909C123.645 71.4627 122.522 67.5131 120.398 64.091C118.273 60.6689 115.23 57.9117 111.616 56.1328C108.002 54.3539 103.961 53.6247 99.9532 54.0282C95.9452 54.4316 92.1309 55.9515 88.9439 58.415C85.7568 60.8786 83.3249 64.1868 81.9246 67.9638C80.5243 71.7408 80.2118 75.8348 81.0226 79.7806C81.8335 83.7263 83.7352 87.3653 86.5114 90.284C89.2877 93.2027 92.8271 95.2839 96.7274 96.2909V102.4C96.7274 109.556 93.8847 116.419 88.8246 121.479C83.7645 126.539 76.9016 129.382 69.7456 129.382C62.5896 129.382 55.7266 126.539 50.6666 121.479C45.6065 116.419 42.7638 109.556 42.7638 102.4C43.0343 95.9759 44.6046 89.6734 47.3796 83.8733C50.1547 78.0732 54.0769 72.896 58.9092 68.6545H58.1819C63.3251 65.2993 67.5662 60.7332 70.5333 55.3569C73.5005 49.9805 75.1029 43.9582 75.2001 37.8182V16.1455C75.2001 11.8634 73.4991 7.75675 70.4712 4.72889C67.4434 1.70103 63.3367 0 59.0547 0H50.9092C49.4819 2.12691e-08 48.113 0.567011 47.1037 1.5763C46.0944 2.58558 45.5274 3.95447 45.5274 5.38182C45.5274 6.80916 46.0944 8.17805 47.1037 9.18734C48.113 10.1966 49.4819 10.7636 50.9092 10.7636H58.9092C60.3366 10.7636 61.7055 11.3306 62.7147 12.3399C63.724 13.3492 64.291 14.7181 64.291 16.1455V37.8182C64.2911 44.9298 61.4761 51.7523 56.461 56.7945C51.446 61.8368 44.6389 64.6888 37.5274 64.7273V68.6545V64.7273C33.9936 64.7464 30.4907 64.0693 27.2186 62.7347C23.9465 61.4001 20.9693 59.434 18.4571 56.9487C15.9448 54.4635 13.9467 51.5078 12.5767 48.2503C11.2068 44.9928 10.4919 41.4974 10.4729 37.9636V16.1455C10.4729 14.7181 11.0399 13.3492 12.0492 12.3399C13.0584 11.3306 14.4273 10.7636 15.8547 10.7636H23.4183C24.8457 10.7636 26.2145 10.1966 27.2238 9.18734C28.2331 8.17805 28.8001 6.80916 28.8001 5.38182C28.8001 3.95447 28.2331 2.58558 27.2238 1.5763C26.2145 0.567011 24.8457 0 23.4183 0H15.8547C11.6232 0.0762542 7.59094 1.81089 4.62571 4.83053C1.66048 7.85016 -0.000560365 11.9133 0.000126665 16.1455V37.8182C-0.0155879 43.8671 1.43113 49.8301 4.21702 55.1993C7.00292 60.5685 11.0454 65.1846 16.0001 68.6545C20.8059 72.9088 24.701 78.0918 27.4507 83.8912C30.2005 89.6907 31.748 95.9866 32.0001 102.4C32.0001 107.357 32.9764 112.265 34.8733 116.845C36.7702 121.424 39.5505 125.585 43.0555 129.09C46.5605 132.595 50.7215 135.375 55.301 137.272C59.8805 139.169 64.7888 140.145 69.7456 140.145C74.7024 140.145 79.6107 139.169 84.1901 137.272C88.7696 135.375 92.9307 132.595 96.4357 129.09C99.9406 125.585 102.721 121.424 104.618 116.845C106.515 112.265 107.491 107.357 107.491 102.4V96.2909C112.105 95.0997 116.193 92.4113 119.115 88.6472C122.036 84.8831 123.627 80.2559 123.637 75.4909V75.4909ZM101.818 86.2545C99.6895 86.2545 97.6084 85.6233 95.8384 84.4405C94.0683 83.2578 92.6887 81.5768 91.874 79.61C91.0593 77.6432 90.8462 75.479 91.2615 73.391C91.6768 71.3031 92.702 69.3852 94.2073 67.8799C95.7126 66.3745 97.6305 65.3494 99.7184 64.9341C101.806 64.5188 103.971 64.7319 105.937 65.5466C107.904 66.3613 109.585 67.7409 110.768 69.5109C111.951 71.281 112.582 73.3621 112.582 75.4909C112.582 76.9044 112.304 78.3041 111.763 79.61C111.222 80.9159 110.429 82.1024 109.429 83.1019C108.43 84.1014 107.243 84.8943 105.937 85.4352C104.631 85.9761 103.232 86.2545 101.818 86.2545V86.2545Z" fill="#0093F8"/>
</svg>
