<?xml version="1.0" encoding="utf-8"?>
<!-- Generator: Adobe Illustrator 16.0.0, SVG Export Plug-In . SVG Version: 6.00 Build 0)  -->
<!DOCTYPE svg PUBLIC "-//W3C//DTD SVG 1.0//EN" "http://www.w3.org/TR/2001/REC-SVG-20010904/DTD/svg10.dtd">
<svg version="1.0" id="Layer_1" xmlns="http://www.w3.org/2000/svg" xmlns:xlink="http://www.w3.org/1999/xlink" x="0px" y="0px"
	 width="100px" height="100px" viewBox="0 0 100 100" enable-background="new 0 0 100 100" xml:space="preserve">
<path fill="#2E3192" d="M15.859,84.141c7.813,7.812,20.47,7.814,28.282,0.001l40.006-40c7.808-7.808,7.808-20.467-0.006-28.281
	c-7.813-7.812-20.469-7.814-28.281-0.001l-40.004,40C8.047,63.668,8.048,76.327,15.859,84.141z"/>
<path fill="#29B6F6" d="M77.004,51.286l-5.532,5.529c5.532,0.616,10.025,4.578,11.391,9.852H61.62L51.286,76.996
	c2.842,7.588,10.14,13.001,18.721,13.001C81.042,89.997,90,81.04,90,69.992C89.999,61.423,84.585,54.128,77.004,51.286z
	 M70.003,83.333c-6.205,0-11.376-4.262-12.864-10h25.721C81.373,79.071,76.2,83.333,70.003,83.333z"/>
<circle fill="#29B6F6" cx="43.332" cy="15.001" r="5"/>
<path fill="#29B6F6" d="M21.669,10c-6.445,0-11.67,5.225-11.67,11.665c0,6.442,5.225,11.668,11.67,11.668
	c6.438,0,11.664-5.226,11.664-11.668C33.333,15.226,28.107,10,21.669,10z M21.666,26.668c-2.761,0-5-2.24-5-5c0-2.759,2.24-5,5-5
	c2.761,0,5,2.241,5,5C26.667,24.428,24.427,26.668,21.666,26.668z"/>
<circle fill="#29B6F6" cx="13.333" cy="43.334" r="3.333"/>
<path fill="#E1F5FE" d="M61.786,57.073l17.647-17.645c5.195-5.198,5.19-13.654-0.008-18.854c-2.519-2.519-5.868-3.908-9.429-3.908
	c-3.56,0-6.905,1.386-9.424,3.904L42.928,38.214L61.786,57.073z"/>
<path fill="#E1F5FE" d="M20.572,79.428c2.522,2.52,5.868,3.905,9.43,3.909c0,0,0,0,0.003,0c3.558,0,6.904-1.39,9.422-3.905
	l17.647-17.646l-18.86-18.859L20.569,60.573C15.373,65.769,15.375,74.229,20.572,79.428z"/>
</svg>
