<svg width="161" height="218" viewBox="0 0 161 218" fill="none" xmlns="http://www.w3.org/2000/svg">
<g clip-path="url(#clip0)">
<path fill-rule="evenodd" clip-rule="evenodd" d="M105.396 0.959302C106.493 0.332258 107.736 0.00244522 109 0.00244522C110.264 0.00244522 111.507 0.332258 112.604 0.959302L214.338 59.0926C215.45 59.7279 216.374 60.6459 217.017 61.7536C217.661 62.8613 218 64.1192 218 65.4001V75.8641C218 141.729 174.327 199.63 110.991 217.709C109.69 218.08 108.31 218.08 107.009 217.709C76.1835 208.902 49.0655 190.294 29.758 164.701C10.4506 139.108 0.00436502 107.923 0 75.8641L0 65.4001C0.00041314 64.1192 0.339372 62.8613 0.982533 61.7536C1.6257 60.6459 2.55021 59.7279 3.6624 59.0926L105.396 0.959302V0.959302ZM102.78 155.667L165.535 77.2012L154.199 68.1324L100.687 135L62.784 103.419L53.4827 114.581L102.78 155.667V155.667Z" fill="#0F84C1"/>
</g>
<defs>
<clipPath id="clip0">
<rect width="218" height="218" fill="white"/>
</clipPath>
</defs>
</svg>
